<svg xmlns="http://www.w3.org/2000/svg" version="1.1" xmlns:xlink="http://www.w3.org/1999/xlink" width="512" height="512" x="0" y="0" viewBox="0 0 48 48" style="enable-background:new 0 0 512 512" xml:space="preserve" fill-rule="evenodd"><g><path d="M14.519 13.5h-2.657a3.5 3.5 0 0 0-3.491 3.251l-1.714 24a3.5 3.5 0 0 0 3.491 3.749h27.704a3.502 3.502 0 0 0 3.491-3.749l-1.714-24a3.5 3.5 0 0 0-3.491-3.251H33.5V13A9.5 9.5 0 0 0 24 3.5c-5.055 0-9.727 4.026-9.5 9.5l.019.5zm15.981 0V13a6.5 6.5 0 1 0-13 0v.5z" fill="#FFFFFF" opacity="1" data-original="#000000"></path></g></svg>